<?xml version="1.0" encoding="utf-8"?>
<!-- Generator: Adobe Illustrator 22.1.0, SVG Export Plug-In . SVG Version: 6.00 Build 0)  -->
<svg version="1.1" id="图层_1" xmlns="http://www.w3.org/2000/svg" xmlns:xlink="http://www.w3.org/1999/xlink" x="0px" y="0px"
	 viewBox="0 0 220 220" style="enable-background:new 0 0 220 220;" xml:space="preserve">
<style type="text/css">
	.st0{fill:#C8CED3;}
	.st1{fill:none;stroke:#C8CED3;stroke-width:2;stroke-linecap:round;stroke-linejoin:round;}
</style>
<title>Location not available</title>
<g id="图层_2_1_">
	<path class="st0" d="M110,125.9c-23.6,0-42.7-19.1-42.7-42.7S86.4,40.6,110,40.6s42.7,19.1,42.7,42.7c0,0,0,0,0,0
		C152.6,106.8,133.5,125.9,110,125.9z M110,42.5c-22.5,0-40.8,18.3-40.8,40.8s18.3,40.8,40.8,40.8s40.8-18.3,40.8-40.8c0,0,0,0,0,0
		C150.8,60.7,132.5,42.5,110,42.5z"/>
	<path class="st0" d="M110.2,203.7h-0.4c-5,0-8.5-3.4-11.4-6.6c-2-2.2-3.8-4.5-5.6-6.8c-0.8-1-1.6-2.1-2.5-3.1
		c-8.1-10-14-17.9-19.3-25.4c-5.3-7.6-10.2-15.5-14.6-23.7c-4.3-8-7.8-16.5-10.5-25.2c-2.6-8.4-4-17.1-4.1-25.8
		c0-39,30.5-70.8,68.1-70.8S178.1,48,178.1,87c0,1.2,0,2.5-0.1,3.7c-0.5,8.9-2.3,17.8-5.3,26.2c-3.1,8.8-6.9,17.3-11.6,25.4
		c-4.7,8.2-9.8,16.2-15.3,23.9c-4.8,6.7-10.1,13.6-16.6,21.6l-2.5,3.1c-1.7,2.2-3.5,4.3-5.3,6.4
		C119.1,200.1,115.3,203.7,110.2,203.7z M110,19.9C74.5,19.9,45.6,50,45.6,87c0.1,8.4,1.4,16.7,3.9,24.7c2.6,8.5,6,16.7,10.2,24.5
		c4.3,8.1,9.1,15.9,14.3,23.4c5.2,7.5,11.1,15.3,19.1,25.2c0.8,1,1.7,2.1,2.5,3.2c1.7,2.2,3.5,4.5,5.4,6.6c2.5,2.8,5.2,5.4,8.7,5.4
		h0.4c2.7,0,5.4-1.6,8.4-5.2c1.8-2.1,3.5-4.2,5.2-6.3l2.5-3.1c6.5-8,11.8-14.8,16.5-21.4c5.5-7.6,10.5-15.4,15.1-23.5
		c4.5-7.9,8.3-16.2,11.3-24.8c2.9-8.1,4.6-16.6,5.1-25.2c0.1-1.2,0.1-2.3,0.1-3.5C174.4,50,145.5,19.9,110,19.9z"/>
	<line class="st1" x1="206.6" y1="13.4" x2="13.4" y2="206.6"/>
</g>
</svg>
