<?xml version="1.0" encoding="utf-8"?>
<!-- Generator: Adobe Illustrator 22.1.0, SVG Export Plug-In . SVG Version: 6.00 Build 0)  -->
<svg version="1.1" id="图层_1" xmlns="http://www.w3.org/2000/svg" xmlns:xlink="http://www.w3.org/1999/xlink" x="0px" y="0px"
	 viewBox="0 0 400 128" style="enable-background:new 0 0 400 128;" xml:space="preserve">
<style type="text/css">
	.st0{clip-path:url(#SVGID_2_);}
	.st1{clip-path:url(#SVGID_4_);}
	.st2{clip-path:url(#SVGID_6_);}
	.st3{clip-path:url(#SVGID_8_);}
	.st4{clip-path:url(#SVGID_10_);}
	.st5{clip-path:url(#SVGID_12_);}
</style>
<title>Logo</title>
<path d="M316.2,116.5h9.6v9.7h-9.6V116.5z"/>
<path d="M341.9,85.3c4.4-2.7,9.4-4.1,14.5-4.1c12.6,0,17.7,6.2,17.7,18.2v18.2c-0.1,2.9,0,5.8,0.4,8.6h-7.6v-5.7h-0.2
	c-3.2,4.3-8.2,6.9-13.6,6.7c-9.5,0-16.1-4.1-16.1-13.7c0-11,12.1-14.5,20.4-14.5c3.2,0,5.4,0,8.6,0.2c0-7.6-2.8-11.5-10.9-11.5
	c-4.6,0-9.1,1.6-12.8,4.5L341.9,85.3z M365.9,105.2c-1.7,0-3.4-0.2-5.2-0.2c-4.4,0-15.2,0.7-15.2,8.4c0,4.7,4.5,7.2,8.2,7.2
	c8,0,12.2-5,12.2-11.6V105.2z"/>
<path d="M397.4,72.4h-9.1v-9.1h9.1V72.4z M388.8,82.2h8.1v43.9h-8.1V82.2z"/>
<g>
	<defs>
		<path id="SVGID_1_" d="M2.6,127.1h16.8v-17H2.6V127.1z M20.8,127.1h16.9v-17H20.8V127.1z M39.2,127.1h16.9v-17H39.2V127.1z
			 M57.5,127.1h16.8v-17H57.5L57.5,127.1z M75.9,127.1h16.8v-17H75.9V127.1z M2.6,108.8h16.8V92H2.6V108.8z M20.8,90.7h16.9v-17
			H20.8V90.7z M39.2,72.5h16.9v-17H39.2V72.5z M57.5,54.2h16.8v-17H57.5V54.2z M75.9,36.1h16.8v-17H75.9V36.1z M2.6,17.8h16.8v-17
			H2.6V17.8z M20.8,17.8h16.9v-17H20.8V17.8z M39.2,17.8h16.9v-17H39.2V17.8z M57.5,17.8h16.8v-17H57.5L57.5,17.8z M75.9,17.8h16.8
			v-17H75.9V17.8z"/>
	</defs>
	<clipPath id="SVGID_2_">
		<use xlink:href="#SVGID_1_"  style="overflow:visible;"/>
	</clipPath>
	<g class="st0">
		<rect x="-2.3" y="-4.1" width="99.8" height="136.1"/>
	</g>
</g>
<g>
	<defs>
		<path id="SVGID_3_" d="M127.5,127.1h16.9v-17h-16.9V127.1z M145.9,127.1h16.9v-17h-16.9V127.1z M164.2,127.1H181v-17h-16.8V127.1z
			 M109.3,108.8h16.8V92h-16.8L109.3,108.8z M182.6,108.8h16.8V92h-16.8V108.8z M109.3,90.7h16.8v-17h-16.8V90.7z M182.6,90.7h16.8
			v-17h-16.8V90.7z M109.3,72.5h16.8v-17h-16.8V72.5z M182.6,72.5h16.8v-17h-16.8V72.5z M109.3,54.2h16.8v-17h-16.8V54.2z
			 M182.6,54.2h16.8v-17h-16.8V54.2z M109.3,36.1h16.8v-17h-16.8V36.1z M182.6,36.1h16.8v-17h-16.8V36.1z M109.3,17.8h16.8v-17
			h-16.8V17.8z M182.6,17.8h16.8v-17h-16.8V17.8z"/>
	</defs>
	<clipPath id="SVGID_4_">
		<use xlink:href="#SVGID_3_"  style="overflow:visible;"/>
	</clipPath>
	<g class="st1">
		<rect x="104.4" y="-4.1" width="99.8" height="136.1"/>
	</g>
</g>
<g>
	<defs>
		<path id="SVGID_5_" d="M234.2,127.1h16.9v-17h-16.9V127.1z M252.5,127.1h16.9v-17h-16.9L252.5,127.1z M270.9,127.1h16.8v-17h-16.8
			L270.9,127.1z M216,108.8h16.8V92H216V108.8z M289.3,108.8H306V92h-16.7L289.3,108.8z M289.3,90.7H306v-17h-16.7L289.3,90.7z
			 M234.2,72.5h16.9v-17h-16.9V72.5z M252.5,72.5h16.9v-17h-16.9L252.5,72.5z M270.9,72.5h16.8v-17h-16.8L270.9,72.5z M216,54.2
			h16.8v-17H216V54.2z M216,36.1h16.8v-17H216V36.1z M289.3,36.1H306v-17h-16.7L289.3,36.1z M234.2,17.8h16.9v-17h-16.9V17.8z
			 M252.5,17.8h16.9v-17h-16.9L252.5,17.8z M270.9,17.8h16.8v-17h-16.8L270.9,17.8z"/>
	</defs>
	<clipPath id="SVGID_6_">
		<use xlink:href="#SVGID_5_"  style="overflow:visible;"/>
	</clipPath>
	<g class="st2">
		<rect x="211.1" y="-4.1" width="99.8" height="136.1"/>
	</g>
</g>
<path d="M-238.8,430.5h9.6v9.6h-9.6V430.5z"/>
<path d="M-213.1,399.3c4.4-2.7,9.4-4.1,14.5-4.1c12.6,0,17.7,6.2,17.7,18.2v18.2c-0.1,2.9,0,5.8,0.4,8.6h-7.6v-5.7h-0.2
	c-3.2,4.3-8.2,6.9-13.6,6.7c-9.5,0-16.1-4.1-16.1-13.7c0-11,12.1-14.5,20.4-14.5c3.2,0,5.4,0,8.6,0.2c0-7.6-2.8-11.5-10.9-11.5
	c-4.6,0-9.1,1.6-12.8,4.5L-213.1,399.3z M-189.1,419.2c-1.7,0-3.4-0.2-5.2-0.2c-4.4,0-15.2,0.7-15.2,8.4c0,4.6,4.5,7.1,8.2,7.1
	c8,0,12.2-5,12.2-11.5V419.2z"/>
<path d="M-157.6,386.4h-9.1v-9.1h9.1V386.4z M-166.2,396.2h8.1v43.9h-8.1V396.2z"/>
<g>
	<defs>
		<path id="SVGID_7_" d="M-552.4,441.1h16.8v-17h-16.8V441.1z M-534.2,441.1h16.9v-17h-16.9V441.1z M-515.8,441.1h16.9v-17h-16.9
			V441.1z M-497.5,441.1h16.8v-17h-16.8V441.1z M-479.1,441.1h16.8v-17h-16.8V441.1z M-552.4,422.8h16.8V406h-16.8V422.8z
			 M-534.2,404.7h16.9v-17h-16.9V404.7z M-515.8,386.5h16.9v-17h-16.9V386.5z M-497.5,368.2h16.8v-17h-16.8V368.2z M-479.1,350.1
			h16.8v-17h-16.8V350.1z M-552.4,331.8h16.8v-17h-16.8V331.8z M-534.2,331.8h16.9v-17h-16.9V331.8z M-515.8,331.8h16.9v-17h-16.9
			V331.8z M-497.5,331.8h16.8v-17h-16.8V331.8z M-479.1,331.8h16.8v-17h-16.8V331.8z"/>
	</defs>
	<clipPath id="SVGID_8_">
		<use xlink:href="#SVGID_7_"  style="overflow:visible;"/>
	</clipPath>
	<g class="st3">
		<rect x="-557.3" y="309.9" width="99.8" height="136.1"/>
	</g>
</g>
<g>
	<defs>
		<path id="SVGID_9_" d="M-427.5,441.1h16.9v-17h-16.9V441.1z M-409.1,441.1h16.9v-17h-16.9V441.1z M-390.8,441.1h16.8v-17h-16.8
			V441.1z M-445.7,422.8h16.8V406h-16.8V422.8z M-372.4,422.8h16.8V406h-16.8V422.8z M-445.7,404.7h16.8v-17h-16.8V404.7z
			 M-372.4,404.7h16.8v-17h-16.8V404.7z M-445.7,386.5h16.8v-17h-16.8V386.5z M-372.4,386.5h16.8v-17h-16.8V386.5z M-445.7,368.2
			h16.8v-17h-16.8V368.2z M-372.4,368.2h16.8v-17h-16.8V368.2z M-445.7,350.1h16.8v-17h-16.8V350.1z M-372.4,350.1h16.8v-17h-16.8
			V350.1z M-445.7,331.8h16.8v-17h-16.8V331.8z M-372.4,331.8h16.8v-17h-16.8V331.8z"/>
	</defs>
	<clipPath id="SVGID_10_">
		<use xlink:href="#SVGID_9_"  style="overflow:visible;"/>
	</clipPath>
	<g class="st4">
		<rect x="-450.6" y="309.9" width="99.8" height="136.1"/>
	</g>
</g>
<rect x="-445.7" y="565.8" width="16.9" height="17"/>
<rect x="-427.5" y="565.8" width="16.9" height="17"/>
<rect x="-409.1" y="565.8" width="16.9" height="17"/>
<rect x="-390.8" y="474.8" width="16.8" height="17"/>
<rect x="-445.7" y="547.7" width="16.8" height="16.8"/>
<rect x="-390.8" y="547.7" width="16.8" height="16.8"/>
<rect x="-445.7" y="529.3" width="16.8" height="17"/>
<rect x="-372.4" y="529.3" width="16.8" height="17"/>
<rect x="-445.7" y="511.2" width="16.8" height="17"/>
<rect x="-372.4" y="511.2" width="16.8" height="17"/>
<rect x="-445.7" y="492.9" width="16.8" height="17"/>
<rect x="-409.1" y="456.5" width="16.8" height="17"/>
<rect x="-445.7" y="474.8" width="16.8" height="17"/>
<rect x="-372.4" y="492.9" width="16.8" height="17"/>
<rect x="-445.7" y="456.5" width="16.8" height="17"/>
<rect x="-427.5" y="456.5" width="16.8" height="17"/>
<g>
	<rect x="-329.9" y="565.8" width="16.9" height="17"/>
	<rect x="-329.9" y="547.7" width="16.8" height="16.8"/>
	<rect x="-329.9" y="529.4" width="16.8" height="17"/>
	<rect x="-329.9" y="511.3" width="16.8" height="17"/>
	<rect x="-329.9" y="493" width="16.8" height="17"/>
	<rect x="-329.9" y="474.8" width="16.8" height="17"/>
	<rect x="-274.9" y="474.8" width="16.8" height="17"/>
	<rect x="-293.3" y="474.8" width="16.8" height="17"/>
	<rect x="-311.6" y="493" width="16.8" height="17"/>
</g>
<g>
	<defs>
		<path id="SVGID_11_" d="M-320.8,441.1h16.9v-17h-16.9V441.1z M-302.5,441.1h16.9v-17h-16.9L-302.5,441.1z M-284.1,441.1h16.8v-17
			h-16.8L-284.1,441.1z M-339,422.8h16.8V406H-339V422.8z M-265.7,422.8h16.7V406h-16.7L-265.7,422.8z M-265.7,404.7h16.7v-17h-16.7
			L-265.7,404.7z M-320.8,386.5h16.9v-17h-16.9V386.5z M-302.5,386.5h16.9v-17h-16.9L-302.5,386.5z M-284.1,386.5h16.8v-17h-16.8
			L-284.1,386.5z M-339,368.2h16.8v-17H-339V368.2z M-339,350.1h16.8v-17H-339V350.1z M-265.7,350.1h16.7v-17h-16.7L-265.7,350.1z
			 M-320.8,331.8h16.9v-17h-16.9V331.8z M-302.5,331.8h16.9v-17h-16.9L-302.5,331.8z M-284.1,331.8h16.8v-17h-16.8L-284.1,331.8z"/>
	</defs>
	<clipPath id="SVGID_12_">
		<use xlink:href="#SVGID_11_"  style="overflow:visible;"/>
	</clipPath>
	<g class="st5">
		<rect x="-343.9" y="309.9" width="99.8" height="136.1"/>
	</g>
</g>
<path d="M-238.8,573.2h9.6v9.7h-9.6V573.2z"/>
</svg>
