<svg id="图层_1" data-name="图层 1" xmlns="http://www.w3.org/2000/svg" viewBox="0 0 100 100"><defs><style>.cls-1{fill:#fff;}</style></defs><title>Icon SVG all white</title><path class="cls-1" d="M82.82,79.42h-65A6.42,6.42,0,0,1,11.44,73V35.11a6.42,6.42,0,0,1,6.41-6.41h9.83V24.29a3.71,3.71,0,0,1,3.7-3.71H36.8a3.72,3.72,0,0,1,3.71,3.71V28.7H60.16V24.29a3.71,3.71,0,0,1,3.71-3.71h5.41A3.71,3.71,0,0,1,73,24.29V28.7h9.83a6.42,6.42,0,0,1,6.41,6.41V73A6.42,6.42,0,0,1,82.82,79.42Zm-65-48.72a4.42,4.42,0,0,0-4.41,4.41V73a4.42,4.42,0,0,0,4.41,4.41h65A4.42,4.42,0,0,0,87.23,73V35.11a4.42,4.42,0,0,0-4.41-4.41H72a1,1,0,0,1-1-1V24.29a1.71,1.71,0,0,0-1.71-1.71H63.87a1.71,1.71,0,0,0-1.71,1.71V29.7a1,1,0,0,1-1,1H39.51a1,1,0,0,1-1-1V24.29a1.71,1.71,0,0,0-1.71-1.71H31.38a1.7,1.7,0,0,0-1.7,1.71V29.7a1,1,0,0,1-1,1Z"/><path class="cls-1" d="M34.09,42.2a.82.82,0,0,0-.82.82V53h-10a.83.83,0,0,0,0,1.65h10v10a.82.82,0,0,0,1.64,0v-10h10a.83.83,0,0,0,0-1.65h-10V43a.81.81,0,0,0-.82-.82Z"/><path class="cls-1" d="M78.76,53.24H57.1a.82.82,0,1,0,0,1.64H78.76a.82.82,0,0,0,0-1.64Z"/></svg>