<svg id="图层_1" data-name="图层 1" xmlns="http://www.w3.org/2000/svg" viewBox="0 0 32 32"><title>Nonda Logo</title><path d="M31.6,25.25a2.69,2.69,0,0,1-2.69-2.68V8.25a7,7,0,0,0-7-7H7a7,7,0,0,0-7,7v15.5a7,7,0,0,0,7,7H21.9a6.53,6.53,0,0,0,4.38-1.53,6.53,6.53,0,0,0,4.38,1.53H32V25.25Zm-8.79-2.68a2.68,2.68,0,0,1-1.34,2.32,2.56,2.56,0,0,1-1.35.36H8.79a2.55,2.55,0,0,1-1.34-.36A2.68,2.68,0,0,1,6.1,22.57V9.43A2.68,2.68,0,0,1,7.45,7.11a2.55,2.55,0,0,1,1.34-.36H20.12a2.56,2.56,0,0,1,1.35.36,2.68,2.68,0,0,1,1.34,2.32Z"/></svg>