<svg id="图层_1" data-name="图层 1" xmlns="http://www.w3.org/2000/svg" viewBox="0 0 100 100"><defs><style>.cls-1{fill:#fff;}</style></defs><title>Icon SVG all white</title><path class="cls-1" d="M74.39,62.28V74.81a9,9,0,0,1-9,9H31.46a9,9,0,0,1-9-9V25.19a9,9,0,0,1,9-9H65.39a9,9,0,0,1,9,9V36.68h2V25.19a11,11,0,0,0-11-11H31.46a11,11,0,0,0-11,11V74.81a11,11,0,0,0,11,11H65.39a11,11,0,0,0,11-11V62.28Z"/><path class="cls-1" d="M79.46,50.38a.92.92,0,0,0,0-.76.93.93,0,0,0-.21-.33L63.48,33.52a1,1,0,0,0-1.42,1.42L76.13,49H34.93a1,1,0,0,0,0,2h41.2L62.06,65.06a1,1,0,0,0,0,1.42,1,1,0,0,0,1.42,0L79.25,50.71A1,1,0,0,0,79.46,50.38Z"/></svg>