<svg id="图层_1" data-name="图层 1" xmlns="http://www.w3.org/2000/svg" viewBox="0 0 100 100"><defs><style>.cls-1{fill:#fff;}.cls-2{fill:none;stroke:#fff;stroke-linecap:round;stroke-linejoin:round;stroke-width:2px;}</style></defs><title>Icon SVG all white</title><path class="cls-1" d="M87.68,42.51a21.32,21.32,0,0,0,.19-2.82A24,24,0,0,0,44.16,26a15.94,15.94,0,0,0-22.91,12.6A17.88,17.88,0,0,0,24.55,74H49.22V72H24.55a15.88,15.88,0,0,1-1.39-31.7v-.07A13.93,13.93,0,0,1,44.82,28.65a22,22,0,0,1,41.05,11,22.26,22.26,0,0,1-.33,3.67A15.87,15.87,0,0,1,76.11,72H58.19v2H76.11a17.87,17.87,0,0,0,11.57-31.5Z"/><polyline class="cls-2" points="42.7 64.73 53.81 53.63 64.91 64.73"/><line class="cls-2" x1="53.81" y1="53.62" x2="53.81" y2="84.33"/></svg>