<svg id="图层_1" data-name="图层 1" xmlns="http://www.w3.org/2000/svg" viewBox="0 0 100 100"><defs><style>.cls-1{fill:#fff;}</style></defs><title>Inventory Icon</title><path class="cls-1" d="M35.46,10.71A19.54,19.54,0,0,1,55,30.25v0a19.49,19.49,0,0,1-8.58,16.15s0,0,0,0c-.44.3-.9.56-1.36.83l-.27.16c-.4.21-.81.4-1.22.58-.17.08-.33.17-.5.24-.36.15-.74.27-1.11.41s-.45.17-.68.25-.71.18-1.06.26-.53.16-.81.21-.72.11-1.07.17-.57.1-.86.12a18.81,18.81,0,0,1-2,.11,19.42,19.42,0,0,1-5.83-.89c-.28-.09-.55-.2-.83-.3l-.95-.35a19.54,19.54,0,0,1-11.93-18c0-.41,0-.82.06-1.23A19.52,19.52,0,0,1,35.46,10.71M74.62,24.92a13.46,13.46,0,0,1,12.64,8.86,13.11,13.11,0,0,1,.84,4.62v0a13.59,13.59,0,0,1-5.92,11.14l0,0c-.31.2-.62.39-.94.57a1.18,1.18,0,0,1-.19.11c-.27.15-.56.28-.83.4l-.35.17-.77.28-.47.17-.72.19-.56.14c-.25,0-.5.07-.74.11l-.6.09a12.26,12.26,0,0,1-1.36.07,13.37,13.37,0,0,1-4-.61L70,51.06c-.22-.08-.44-.15-.65-.24a13.47,13.47,0,0,1-8.23-12.24c0-.06,0-.12,0-.18,0-.29,0-.56,0-.85A13.59,13.59,0,0,1,74.62,24.92M35.42,55.64A32.35,32.35,0,0,1,67.77,88c0,.44,0,.86-.06,1.3H3.12c0-.44-.06-.86-.06-1.3A32.35,32.35,0,0,1,35.42,55.64m39.2.27A22.32,22.32,0,0,1,96.94,78.22c0,.3,0,.59,0,.9H72.55a38.29,38.29,0,0,0-11-19,22.19,22.19,0,0,1,13.08-4.26M35.46,8.71A21.57,21.57,0,0,0,14,28.9v.24c0,.35-.05.72-.05,1.11A21.51,21.51,0,0,0,27.07,50.1l.66.25.35.13h.05l.29.11.6.22a21.63,21.63,0,0,0,6.44,1,20.83,20.83,0,0,0,2.2-.12l.68-.09.26,0,.3,0a8.87,8.87,0,0,0,.9-.15,5.09,5.09,0,0,0,.65-.16l.23-.06.19,0c.29-.07.62-.15,1-.25l.48-.17.25-.1.32-.11c.32-.11.63-.22.94-.35l.4-.19.15-.07c.35-.15.83-.37,1.32-.63.1,0,.2-.12.3-.18.58-.33,1-.61,1.51-.92l.11-.07A21.55,21.55,0,0,0,35.46,8.71ZM74.62,22.92A15.36,15.36,0,0,0,59.86,33.86a14.75,14.75,0,0,0-.67,3.57l0,.24c0,.24,0,.49,0,.73,0,.07,0,.15,0,.22v0A15.47,15.47,0,0,0,68.6,52.66a6.07,6.07,0,0,0,.67.25l.07,0,.1,0,.54.19a15.56,15.56,0,0,0,4.65.71c.52,0,1,0,1.56-.08a4.44,4.44,0,0,0,.49-.07l.17,0,.26,0,.61-.1.44-.11.19-.05.23,0,.58-.15.09,0,.37-.14.15,0,0,0,.8-.29.33-.16.07,0c.27-.12.61-.27.94-.45l.23-.13c.31-.18.7-.4,1.08-.66l0,0a15.62,15.62,0,0,0,6.8-12.69V38.4a15.2,15.2,0,0,0-1-5.32A15.51,15.51,0,0,0,74.62,22.92ZM35.42,53.64A34.39,34.39,0,0,0,1.06,88c0,.31,0,.61,0,.91l0,.46a2,2,0,0,0,2,1.93H67.71a2,2,0,0,0,2-1.92c0-.14,0-.28,0-.42,0-.32,0-.63,0-1A34.39,34.39,0,0,0,35.42,53.64Zm39.2.27a24.08,24.08,0,0,0-14.26,4.65,2,2,0,0,0-.19,3.07A36.1,36.1,0,0,1,70.6,79.58a2,2,0,0,0,2,1.54H96.89a2,2,0,0,0,2-1.9l0-.27c0-.24,0-.48,0-.73A24.35,24.35,0,0,0,74.62,53.91Z"/></svg>