<svg id="图层_1" data-name="图层 1" xmlns="http://www.w3.org/2000/svg" viewBox="0 0 100 100"><defs><style>.cls-1{fill:#fff;}</style></defs><title>Inventory Icon</title><path class="cls-1" d="M87.51,10.93l9.43,20.89c0,4.6-4.21,8.34-9.39,8.34s-9.39-3.74-9.39-8.34c0,4.6-4.2,8.34-9.38,8.34s-9.39-3.74-9.39-8.34c0,4.6-4.21,8.34-9.39,8.34s-9.39-3.74-9.39-8.34c0,4.6-4.2,8.34-9.38,8.34s-9.39-3.74-9.39-8.34c0,4.6-4.21,8.34-9.39,8.34s-9.39-3.74-9.39-8.34l9.43-20.89h75M78.16,42.74a15.72,15.72,0,0,0,8.57,3V89.07H42.5V49.43H18.69V89.07H12.48V45.81a15.67,15.67,0,0,0,9.36-3.07,15.84,15.84,0,0,0,18.77,0,15.85,15.85,0,0,0,18.78,0,15.84,15.84,0,0,0,18.77,0M47.76,73.63H81.54V49.43H47.76v24.2M87.51,8.93h-75a2,2,0,0,0-1.82,1.18L1.24,31a2,2,0,0,0-.18.83c0,5.7,5.11,10.34,11.39,10.34a11.76,11.76,0,0,0,9.39-4.49,12.05,12.05,0,0,0,18.77,0,12.06,12.06,0,0,0,18.78,0,12.05,12.05,0,0,0,18.77,0,11.76,11.76,0,0,0,9.39,4.49c6.28,0,11.39-4.64,11.39-10.34a2,2,0,0,0-.18-.83L89.33,10.11a2,2,0,0,0-1.82-1.18ZM78.16,40.74a1.94,1.94,0,0,0-1.19.4,13.87,13.87,0,0,1-16.39,0,1.94,1.94,0,0,0-1.19-.4,2,2,0,0,0-1.2.4,13.85,13.85,0,0,1-16.38,0,2,2,0,0,0-2.4,0,13.84,13.84,0,0,1-16.37,0,2,2,0,0,0-1.2-.4,1.94,1.94,0,0,0-1.19.4,13.57,13.57,0,0,1-8.17,2.67,2,2,0,0,0-2,2V89.07a2,2,0,0,0,2,2h6.21a2,2,0,0,0,2-2V51.43H40.5V89.07a2,2,0,0,0,2,2H86.73a2,2,0,0,0,2-2V45.79a2,2,0,0,0-1.9-2,13.6,13.6,0,0,1-7.47-2.65,2,2,0,0,0-1.2-.4ZM49.76,51.43H79.54v20.2H49.76V51.43Z"/></svg>