<svg id="图层_1" data-name="图层 1" xmlns="http://www.w3.org/2000/svg" viewBox="0 0 100 100"><defs><style>.cls-1{fill:#fff;}</style></defs><title>Icon SVG all white</title><path class="cls-1" d="M41.17,35.8c1.91,0,3.82.06,5.72.18s4,.32,6,.62c.95.13,1.89.32,2.83.5a11.3,11.3,0,0,1,2.76.7,9,9,0,0,1,3.35,2.37,17.55,17.55,0,0,1,1.94,3.29c1.34,2.63,2.61,5.29,3.91,7.93a15.12,15.12,0,0,0,1.72-1.84,14.19,14.19,0,0,1,2.16-.17c3.39,0,5.18,1.37,5.73,2.36.35,1.28-1.14,4.16-3.22,4.16a2.34,2.34,0,0,1-1-.25C77.55,57.79,76.9,65,76.9,65V77l-.37,1v8.29l-1.29,1.29H64l-1.81-1.81v-1.6H17.3v2L15.85,87.6H4.66l-1.2-1.83V77.41l-.36-.36s-.18-.53-.3-9.9c-.41-9.36,3.74-11.5,3.74-11.5h0c-.3,0-1.45-1-1.6-1.12a6.39,6.39,0,0,1-2-2.17A1.28,1.28,0,0,1,3.31,51c1.05-1.22,2.92-1.5,4.44-1.6.33,0,.67,0,1,0s.71,0,1.07,0h.29c.23,0,.52,0,.57.07l1.72,2.25,0-.07c1.06-2.32,2.12-4.63,3.19-7,.39-.86.8-1.71,1.18-2.58A10.3,10.3,0,0,1,18,39.67a7.41,7.41,0,0,1,3.77-2,33,33,0,0,1,4.83-.87q3.16-.43,6.36-.69c2.72-.21,5.45-.33,8.18-.33m0-1.81h0c-2.69,0-5.49.11-8.32.34-2.11.17-4.29.4-6.46.7l-.47.06A30.91,30.91,0,0,0,21.3,36a8.73,8.73,0,0,0-4.68,2.59,9,9,0,0,0-1.27,2.33c-.06.16-.13.32-.2.48-.26.59-.53,1.18-.8,1.76-.12.26-.25.53-.37.8l-1,2.25c-.31.68-.62,1.36-.94,2a2.38,2.38,0,0,0-1.89-.66H9.9c-.39,0-.77,0-1.14,0s-.76,0-1.13,0c-1.71.11-4.17.45-5.69,2.22a3,3,0,0,0-.66,3.35,7.82,7.82,0,0,0,2.4,2.77A9.54,9.54,0,0,0,3,57C1.47,59.55.81,63,1,67.21c.13,9.62.3,10.14.39,10.42a1.62,1.62,0,0,0,.27.5v7.64a1.84,1.84,0,0,0,.29,1l1.2,1.84a1.83,1.83,0,0,0,1.52.82H15.85a1.85,1.85,0,0,0,1.28-.53l1.45-1.46a1.81,1.81,0,0,0,.53-1.28V86H60.34a1.84,1.84,0,0,0,.52,1.07l1.81,1.81a1.81,1.81,0,0,0,1.28.53H75.24a1.81,1.81,0,0,0,1.28-.53l1.29-1.29a1.81,1.81,0,0,0,.53-1.28v-8l.26-.7a1.9,1.9,0,0,0,.11-.63V65.09c.06-.72.28-5.15-1.85-8.39a5.89,5.89,0,0,0,1-1.07,5.46,5.46,0,0,0,1.16-4.38,1.8,1.8,0,0,0-.16-.38c-.87-1.59-3.25-3.3-7.31-3.3a15.74,15.74,0,0,0-2.42.19,1.78,1.78,0,0,0-1,.48L68,47.75c-.82-1.68-1.67-3.41-2.53-5.11l-.16-.32a18,18,0,0,0-2-3.29,11.16,11.16,0,0,0-6.71-3.63l-.47-.08-.23,0c-.87-.17-1.77-.34-2.68-.48-1.94-.28-4-.49-6.17-.63-1.91-.12-3.87-.18-5.84-.18Z"/><path class="cls-1" d="M38.68,40.41A92.06,92.06,0,0,1,58.23,42.6l4,8H17.77c.82-1.48,2.17-4,4.3-8a59,59,0,0,1,16.61-2.16h0m0-1.29a59.84,59.84,0,0,0-17.5,2.37c-4.45,8.41-5.63,10.37-5.63,10.37H64.28L59.12,41.49a91.3,91.3,0,0,0-20.44-2.37Z"/><path class="cls-1" d="M9,66.09c1.38.11,4.83.38,7.46.65a2.76,2.76,0,0,1,1.89,1.2,3.56,3.56,0,0,1,.25.65h-.23l-1.06,0c-1.09,0-2.22,0-3.33,0-.72,0-1.37,0-2,0l-.47,0-.47,0a1.17,1.17,0,0,1-.32,0,2.5,2.5,0,0,1-.22-.28c-.08-.1-.16-.22-.26-.34A11.07,11.07,0,0,1,9,66.15l0-.06m-.52-1.34s-1.57.21-.59,2a13,13,0,0,0,1.37,2,3.22,3.22,0,0,0,.87.93l.13.06a2.13,2.13,0,0,0,.8.13c.33,0,.66,0,1-.05.65,0,1.3,0,2,0,1.46,0,2.92,0,4.37,0h.19a2.53,2.53,0,0,0,.61-.06c1.19-.33.75-1.68.34-2.48a4.09,4.09,0,0,0-2.8-1.88c-3.4-.35-8.21-.71-8.21-.71Z"/><path class="cls-1" d="M20.5,73.5H11.84a.92.92,0,1,0,0,1.83H20.5a.92.92,0,1,0,0-1.83Z"/><path class="cls-1" d="M68,73.5H59.29a.92.92,0,1,0,0,1.83H68a.92.92,0,1,0,0-1.83Z"/><path class="cls-1" d="M70.79,66.09l0,.06A10.47,10.47,0,0,1,69.52,68l-.25.33a2.94,2.94,0,0,1-.23.29,1.27,1.27,0,0,1-.32,0l-.47,0-.46,0c-.62,0-1.27,0-2,0-1.11,0-2.24,0-3.32,0l-1.07,0h-.23a3.08,3.08,0,0,1,.26-.65,2.73,2.73,0,0,1,1.88-1.2c2.63-.27,6.09-.54,7.47-.65m.51-1.34s-4.8.36-8.21.71a4.11,4.11,0,0,0-2.8,1.88c-.41.8-.85,2.15.34,2.48a2.56,2.56,0,0,0,.62.06h.18c1.46,0,2.91,0,4.37,0,.65,0,1.3,0,2,0,.32,0,.65.05,1,.05a2.22,2.22,0,0,0,.81-.13l.12-.06a3.22,3.22,0,0,0,.87-.93,13,13,0,0,0,1.37-2c1-1.81-.59-2-.59-2Z"/><path class="cls-1" d="M97.75,32.23a5.44,5.44,0,0,0,1.16-4.38,1.85,1.85,0,0,0-.15-.39c-.88-1.59-3.26-3.3-7.32-3.3a17.22,17.22,0,0,0-2.42.19,1.82,1.82,0,0,0-1,.48l-.24-.49c-.82-1.68-1.66-3.41-2.53-5.11l-.16-.31a17.77,17.77,0,0,0-2-3.3,10.77,10.77,0,0,0-4-2.87A10.56,10.56,0,0,0,76.42,12L76,11.91l-.23,0c-.87-.17-1.77-.34-2.68-.47-1.94-.29-4-.49-6.18-.63C65,10.65,63,10.58,61,10.58c-2.69,0-5.49.12-8.32.34-2.11.17-4.28.41-6.46.7l-.46.06a32.24,32.24,0,0,0-4.62.86,8.89,8.89,0,0,0-4.69,2.59,9.08,9.08,0,0,0-1.26,2.33L35,18c-.25.58-.53,1.17-.79,1.75-.13.27-.25.53-.37.8l-1,2.2-1,2.09A2.41,2.41,0,0,0,30,24.14h-.23l-1.13,0c-.39,0-.76,0-1.13,0-1.72.11-4.17.46-5.7,2.23a3,3,0,0,0-.66,3.34,7.92,7.92,0,0,0,2.4,2.77l-.11.16A20.47,20.47,0,0,1,25.87,32c-.44-.3-1-.79-1.12-.87a6.49,6.49,0,0,1-2-2.17,1.27,1.27,0,0,1,.39-1.42c1-1.22,2.91-1.51,4.43-1.6q.51,0,1,0l1.07,0H30a1.25,1.25,0,0,1,.56.07l1.72,2.26,0-.08,3.18-6.94c.4-.86.8-1.72,1.18-2.59a10.3,10.3,0,0,1,1.22-2.41,7.49,7.49,0,0,1,3.77-2,36,36,0,0,1,4.83-.87q3.18-.42,6.36-.68,4.08-.33,8.18-.33c1.91,0,3.82,0,5.73.17s4,.33,6,.62c1,.14,1.9.32,2.84.5a11.53,11.53,0,0,1,2.76.7,9,9,0,0,1,3.35,2.37,18.79,18.79,0,0,1,1.94,3.3c1.33,2.62,2.6,5.28,3.91,7.92a14.22,14.22,0,0,0,1.72-1.84A15.47,15.47,0,0,1,91.44,26c3.39,0,5.19,1.36,5.73,2.36C97.53,29.61,96,32.5,94,32.5a2.52,2.52,0,0,1-1.06-.25c4.51,2.13,3.86,9.36,3.86,9.36v12l-.37,1v8.28L95.1,64.17H83.8l-1.51-1.51a14.17,14.17,0,0,1-.74,1.82l1,1A1.81,1.81,0,0,0,83.8,66H95.1a1.81,1.81,0,0,0,1.28-.53l1.29-1.29a1.81,1.81,0,0,0,.53-1.28v-8l.26-.71a1.88,1.88,0,0,0,.11-.62V41.69c.05-.73.27-5.15-1.85-8.39A6.17,6.17,0,0,0,97.75,32.23Z"/><path class="cls-1" d="M58.54,17a91.79,91.79,0,0,1,19.54,2.2l4,8H37.62c.82-1.48,2.17-4,4.31-8A58.93,58.93,0,0,1,58.54,17h0m0-1.29A59.79,59.79,0,0,0,41,18.08C36.59,26.5,35.4,28.45,35.4,28.45H84.13L79,18.08a91.16,91.16,0,0,0-20.43-2.37Z"/><path class="cls-1" d="M87.8,50.09H81.66c.21.6.4,1.22.57,1.84H87.8a.92.92,0,1,0,0-1.84Z"/><path class="cls-1" d="M90.64,42.68l0,.07a11,11,0,0,1-1.23,1.79c-.1.12-.18.24-.26.34s-.17.23-.23.29a1.19,1.19,0,0,1-.31,0l-.47,0-.47,0-2,0c-1.12,0-2.24,0-3.33,0H81a3.15,3.15,0,0,1,.25-.65,2.83,2.83,0,0,1,1.88-1.2c2.63-.27,6.09-.54,7.47-.65m.51-1.33s-4.8.35-8.21.71a4.1,4.1,0,0,0-2.8,1.88c-.41.79-.84,2.14.35,2.47a2.08,2.08,0,0,0,.61.07h.18c1.46,0,2.92-.06,4.38-.06l2,0c.31,0,.64.05,1,.05a2.17,2.17,0,0,0,.8-.13l.13,0a3.35,3.35,0,0,0,.86-.94,11.5,11.5,0,0,0,1.37-2c1-1.81-.59-2-.59-2Z"/></svg>