<svg id="图层_1" data-name="图层 1" xmlns="http://www.w3.org/2000/svg" viewBox="0 0 100 100"><defs><style>.cls-1{fill:none;stroke:#fff;stroke-linecap:round;stroke-linejoin:round;stroke-width:2px;}.cls-2{fill:#fff;}</style></defs><title>Icon SVG all white</title><line class="cls-1" x1="39.48" y1="62.62" x2="61.19" y2="84.33"/><line class="cls-1" x1="61.19" y1="62.62" x2="39.48" y2="84.33"/><path class="cls-2" d="M89.37,42.54a20.48,20.48,0,0,0,.2-2.87c0-13.24-11.25-24-25.07-24A25.5,25.5,0,0,0,43.9,26a17.09,17.09,0,0,0-7.44-1.68c-8.59,0-15.67,6.27-16.52,14.27-8.69,1.54-15.27,9-15.27,17.55C4.67,66,13,74,23.32,74h19V72.1h-19C14.12,72.1,6.67,65,6.67,56.16c0-8.33,6.68-15.16,15.19-15.86v-.07c0-7.72,6.53-14,14.6-14a14.9,14.9,0,0,1,8.09,2.35,23.27,23.27,0,0,1,20-11c12.74,0,23.07,9.89,23.07,22.09a21.25,21.25,0,0,1-.34,3.68A15.69,15.69,0,0,1,94,56.16C94,65,86.55,72.1,77.35,72.1H58.2V74H77.35C87.63,74,96,66,96,56.16A17.63,17.63,0,0,0,89.37,42.54Z"/></svg>