<?xml version="1.0" encoding="utf-8"?>
<!-- Generator: Adobe Illustrator 22.1.0, SVG Export Plug-In . SVG Version: 6.00 Build 0)  -->
<svg version="1.1" id="图层_1" xmlns="http://www.w3.org/2000/svg" xmlns:xlink="http://www.w3.org/1999/xlink" x="0px" y="0px"
	 viewBox="0 0 100 100" style="enable-background:new 0 0 100 100;" xml:space="preserve">
<style type="text/css">
	.st0{fill:#C8CED3;}
	.st1{fill:none;stroke:#C8CED3;stroke-width:0.75;stroke-linecap:round;stroke-linejoin:round;}
</style>
<title>No Pic</title>
<path class="st0" d="M85.6,18.4c4.4,0,7.9,3.5,7.9,7.9v47.5c0,4.4-3.5,7.9-7.9,7.9H14.4c-4.4,0-7.9-3.5-7.9-7.9V26.3
	c0-4.4,3.5-7.9,7.9-7.9H85.6 M85.6,17.4H14.4c-4.9,0-8.9,4-8.9,8.9v47.5c0,4.9,4,8.9,8.9,8.9h71.2c4.9,0,8.9-4,8.9-8.9V26.3
	C94.5,21.3,90.5,17.4,85.6,17.4z"/>
<polygon class="st1" points="33.6,46.5 45.3,60.5 61.7,39.4 82.9,67.6 17.1,67.6 "/>
<path class="st0" d="M24.9,32.9c3.1,0,5.5,2.5,5.5,5.5c0,3.1-2.5,5.5-5.6,5.5s-5.5-2.5-5.5-5.5C19.3,35.4,21.8,32.9,24.9,32.9
	 M24.9,32.4c-3.3,0-6,2.7-5.9,6c0,3.3,2.7,6,6,5.9c3.3,0,5.9-2.7,5.9-5.9C30.9,35.1,28.2,32.4,24.9,32.4z"/>
</svg>
